<svg xmlns="http://www.w3.org/2000/svg" width="150" height="169"><path d="M46.875 168H18.75v-18.668H0v-18.664h18.75V112h37.5V93.332H75V74.668h18.75V37.332h18.75V0h18.75v37.332H150v56h-18.75v37.336H112.5v18.664H75V168zm0 0" fill="rgb(291, 233, 50)"/><path d="M46.875 168H18.75v-18.668H0v-18.664h18.75V112h37.5V93.332H75V74.668h18.75V37.332h18.75V0h18.75v37.332H150v56h-18.75v37.336H112.5v18.664H75V168zm0-18.668H75v-18.664h37.5V93.332h18.75v-56H112.5v37.336H93.75v18.664H75V112H56.25v18.668h-37.5v18.664zm0 0" fill="rgb(241, 183, 0)"/></svg>